<svg id="Слой_1" data-name="Слой 1" xmlns="http://www.w3.org/2000/svg" viewBox="0 0 72.17 73.06"><title>leaves</title><path d="M63.16,43.27a32.54,32.54,0,0,0-16.7-29.8s-19,15.89-15.52,29.21c0,0,9.87,3.13,13,12.12,0,.13.09.26.13.39a59.79,59.79,0,0,1,4.18-22.65s-3.46,23-.6,30.4C47.65,62.94,49.79,48.27,63.16,43.27Z" transform="translate(-13.92 -13.47)" style="fill:#e12457"/><path d="M27.37,52.81s9.92,4.43,16.7,12.52c.45.54.56-21.76-29.83-24.44,0,0-5.85,39.14,32.22,36.36A63.43,63.43,0,0,0,27.37,52.81Z" transform="translate(-13.92 -13.47)" style="fill:#e12457"/><path d="M84.25,40.81s-36.32-.75-34.87,34.83c0,0,9.29-15.76,24-21.77,0,0-22.59,13.41-21.79,32.66C51.56,86.53,95.46,80.8,84.25,40.81Z" transform="translate(-13.92 -13.47)" style="fill:#e12457"/></svg>