<svg id="Слой_1" data-name="Слой 1" xmlns="http://www.w3.org/2000/svg" viewBox="0 0 59.2 45.1"><title>teacup</title><path d="M25.7,82.5a8.27,8.27,0,0,0-2.5.2l1.2,3.1c0,.1,4,.2,5.3.2H71.5c1.4,0,5.3-.1,5.3-.2L78,82.7a8.27,8.27,0,0,0-2.5-.2Z" transform="translate(-23.2 -40.9)" style="fill:#e12457"/><path d="M70.8,46.7h-.3l.3-4A1.79,1.79,0,0,0,69,40.9H54.7v19l5.8,1.9L56.8,72.9,45.7,69.2,49.4,58,54,59.5V40.9H32.3a1.79,1.79,0,0,0-1.8,1.8l3,36.7a1.79,1.79,0,0,0,1.8,1.8H66a1.79,1.79,0,0,0,1.8-1.8l.8-9.7a15,15,0,0,0,2.2.2,11.6,11.6,0,1,0,0-23.2Zm5.87,16.44a8.35,8.35,0,0,1-1,1A7.61,7.61,0,0,1,70.8,65.9a5.84,5.84,0,0,1-1.9-.2l1.2-15h.7a7.61,7.61,0,0,1,5.87,12.44Z" transform="translate(-23.2 -40.9)" style="fill:#e12457"/></svg>