<svg id="Слой_1" data-name="Слой 1" xmlns="http://www.w3.org/2000/svg" viewBox="0 0 34 48"><title>micro</title><path d="M38.81,41.3H30a13.57,13.57,0,0,0,5.87-20.77,6.07,6.07,0,0,0,.54-2.48,6,6,0,0,0-5.43-6l1.55-2.53a2.18,2.18,0,0,0-.68-3l2.87-4.68L31.56,0,28.69,4.68a2.18,2.18,0,0,0-3,.74l-9.6,15.66-1.69-1-2.39,3.89,10.12,6.21,2.39-3.89-1.68-1,2.43-4A6,6,0,0,0,30.37,24a6.09,6.09,0,0,0,1.43-.18A8.36,8.36,0,0,1,21.09,36.08h2.27V32.86H7v3.22h6.58A13.62,13.62,0,0,0,20,41.3H10a2.19,2.19,0,0,0-2.19,2.18v2.34A2.19,2.19,0,0,0,10,48H38.82A2.19,2.19,0,0,0,41,45.82V43.48A2.19,2.19,0,0,0,38.81,41.3Z" transform="translate(-7 0)" style="fill:#e12457"/></svg>