<svg id="Слой_1" data-name="Слой 1" xmlns="http://www.w3.org/2000/svg" viewBox="0 0 17.57 15.84"><title>down</title><path d="M9.49,10.91l8-8a.79.79,0,1,0-1.12-1.11l-8,8a.79.79,0,0,0,0,1A.78.78,0,0,0,9.49,10.91Z" transform="translate(-0.13 -1.5)" style="isolation:isolate"/><path d="M9.49,17.24l8-8a.79.79,0,0,0-1.12-1.11l-8,8a.8.8,0,0,0,0,1A.78.78,0,0,0,9.49,17.24Z" transform="translate(-0.13 -1.7)" style="isolation:isolate"/><path d="M8.33,17.24l-8-8A.78.78,0,0,1,1.47,8.16l8,8a.79.79,0,0,1-1.12,1.11Z" transform="translate(-0.13 -1.7)" style="isolation:isolate"/></svg>