<svg id="Слой_1" data-name="Слой 1" xmlns="http://www.w3.org/2000/svg" viewBox="0 0 84 60"><title>mine</title><path d="M85.89,65H14.11C13,49.65,20.47,35.26,32.5,28L35,50.66A3,3,0,1,0,41,50L38,23.32a3,3,0,0,1,.75-2.3,3.09,3.09,0,0,1,2.31-1H58.92a3.09,3.09,0,0,1,2.31,1A3,3,0,0,1,62,23.27L59,50a3,3,0,1,0,6,.66L67.5,28C79.53,35.26,87,49.65,85.89,65Z" transform="translate(-8 -20)" style="fill:#e12457"/><path d="M92,75.5A4.51,4.51,0,0,1,87.5,80h-75a4.5,4.5,0,0,1,0-9h75A4.51,4.51,0,0,1,92,75.5Z" transform="translate(-8 -20)" style="fill:#e12457"/></svg>