<svg id="Группа_11" data-name="Группа 11" xmlns="http://www.w3.org/2000/svg" width="1366" height="768" viewBox="0 0 1366 768">
  <metadata><?xpacket begin="﻿" id="W5M0MpCehiHzreSzNTczkc9d"?>
<x:xmpmeta xmlns:x="adobe:ns:meta/" x:xmptk="Adobe XMP Core 5.6-c142 79.160924, 2017/07/13-01:06:39        ">
   <rdf:RDF xmlns:rdf="http://www.w3.org/1999/02/22-rdf-syntax-ns#">
      <rdf:Description rdf:about=""/>
   </rdf:RDF>
</x:xmpmeta>
<?xpacket end="w"?></metadata>
<defs>
    <style>
      .cls-1 {
        fill: none;
        stroke: #e12457;
        stroke-width: 5px;
		fill-rule: evenodd;
      }
	  
	  .cls-2 {
        fill: white;
        stroke: #e12457;
        stroke-width: 5px;
      }

      .cls-3 {
        fill: #e12457;
		fill-rule: evenodd;
      }
    </style>
  </defs>
  <path id="Эллипс_4" data-name="Эллипс 4" class="cls-1" d="M723.979-622.874C1111.81-621.636,1406.86-345.481,1382.99-6.066S1025.38,607.5,637.548,606.258-45.333,328.865-21.466-10.551,336.149-624.113,723.979-622.874Z"/>
  <circle id="Эллипс_3" data-name="Эллипс 3" class="cls-2" cx="1040.72" cy="497.328" r="21.5"/>
  <circle id="Эллипс_3_копия" data-name="Эллипс 3 копия" class="cls-2" cx="778.657" cy="591.532" r="38.063"/>
  <path id="Earth_" data-name="Earth " class="cls-3" d="M773.008,593.334h-2.734v-1.251h2.676v-1.035h-2.676v-1.167h2.734v-1.035H769.1v5.523h3.911v-1.035Zm4.351-1.549a1.339,1.339,0,0,0-.489-1.159,2.091,2.091,0,0,0-1.26-.356,2.548,2.548,0,0,0-1.748.629l0.4,0.7a1.68,1.68,0,0,1,1.169-.472,1.034,1.034,0,0,1,.638.182,0.584,0.584,0,0,1,.24.489v0.538a1.569,1.569,0,0,0-1.268-.488,1.546,1.546,0,0,0-.973.322,1.15,1.15,0,0,0-.419.969,1.19,1.19,0,0,0,.427.973,1.473,1.473,0,0,0,.965.352,1.562,1.562,0,0,0,1.268-.513v0.414h1.053v-2.584Zm-2.437,1.814a0.507,0.507,0,0,1-.215-0.431,0.526,0.526,0,0,1,.215-0.443,0.871,0.871,0,0,1,.539-0.161,0.983,0.983,0,0,1,.845.347v0.5a0.981,0.981,0,0,1-.845.348A0.889,0.889,0,0,1,774.922,593.6Zm4.533-1.872a0.949,0.949,0,0,1,.423-0.323,1.393,1.393,0,0,1,.563-0.132,1.314,1.314,0,0,1,.29.025V590.27a1.51,1.51,0,0,0-.7.182,1.765,1.765,0,0,0-.572.464v-0.547H778.4v4h1.052v-2.642Zm4.151,2.485-0.223-.795a0.5,0.5,0,0,1-.365.116,0.323,0.323,0,0,1-.265-0.125,0.487,0.487,0,0,1-.1-0.314v-1.806h0.812v-0.919h-0.812v-1.093h-1.061v1.093H780.93v0.919h0.663v2.087a1.078,1.078,0,0,0,.29.812,1.168,1.168,0,0,0,.845.281,1.293,1.293,0,0,0,.878-0.256h0Zm4.343-2.683a1.26,1.26,0,0,0-.328-0.928,1.309,1.309,0,0,0-.973-0.331,1.844,1.844,0,0,0-.825.182,1.785,1.785,0,0,0-.584.439v-2.045h-1.052v5.523h1.052v-2.691a1.093,1.093,0,0,1,.911-0.472,0.828,0.828,0,0,1,.556.165,0.715,0.715,0,0,1,.19.563v2.435h1.053v-2.84Z"/>
  <path id="Mars" class="cls-3" d="M1038.19,494.136h-1.66l-1.34,3.337-1.34-3.337h-1.65v5.523h1.17v-3.867l1.56,3.867h0.52l1.55-3.867v3.867h1.19v-5.523Zm4.52,2.939a1.327,1.327,0,0,0-.49-1.159,2.066,2.066,0,0,0-1.26-.356,2.52,2.52,0,0,0-1.74.629l0.39,0.7a1.707,1.707,0,0,1,1.17-.472,1.029,1.029,0,0,1,.64.182,0.584,0.584,0,0,1,.24.489v0.538a1.578,1.578,0,0,0-1.27-.489,1.542,1.542,0,0,0-.97.323,1.148,1.148,0,0,0-.42.969,1.178,1.178,0,0,0,.43.973,1.451,1.451,0,0,0,.96.352,1.568,1.568,0,0,0,1.27-.513v0.414h1.05v-2.584Zm-2.43,1.814a0.5,0.5,0,0,1-.22-0.431,0.512,0.512,0,0,1,.22-0.443,0.858,0.858,0,0,1,.54-0.161,0.971,0.971,0,0,1,.84.347v0.5a0.972,0.972,0,0,1-.84.348A0.876,0.876,0,0,1,1040.28,498.889Zm4.53-1.872a0.916,0.916,0,0,1,.42-0.323,1.417,1.417,0,0,1,.57-0.132,1.377,1.377,0,0,1,.29.025V495.56a1.518,1.518,0,0,0-.71.182,1.776,1.776,0,0,0-.57.464v-0.547h-1.05v4h1.05v-2.642Zm4.64,2.381a1.21,1.21,0,0,0,.29-1.569,1.033,1.033,0,0,0-.44-0.385,4.461,4.461,0,0,0-.57-0.207,5.557,5.557,0,0,0-.57-0.129,1.416,1.416,0,0,1-.44-0.128,0.257,0.257,0,0,1-.18-0.219,0.329,0.329,0,0,1,.18-0.286,0.811,0.811,0,0,1,.45-0.112,1.736,1.736,0,0,1,.68.133,1.527,1.527,0,0,1,.51.331l0.42-.721a2.525,2.525,0,0,0-1.61-.546,1.86,1.86,0,0,0-1.21.364,1.129,1.129,0,0,0-.44.894,1.052,1.052,0,0,0,.18.626,1.1,1.1,0,0,0,.44.368,4.3,4.3,0,0,0,.57.2,5.548,5.548,0,0,0,.58.124,1.3,1.3,0,0,1,.43.137,0.28,0.28,0,0,1,.18.244,0.349,0.349,0,0,1-.17.315,0.884,0.884,0,0,1-.5.116,1.924,1.924,0,0,1-.75-0.166,1.984,1.984,0,0,1-.63-0.381l-0.46.737a2.311,2.311,0,0,0,.79.456,3.04,3.04,0,0,0,1,.165A2,2,0,0,0,1049.45,499.4Z"/>
  <path id="_56_mln_km_7_mths" data-name="56 mln km        7 mths" class="cls-3" d="M915.128,586.022a2.781,2.781,0,0,0,.037-3.882,2.69,2.69,0,0,0-1.877-.7,2.726,2.726,0,0,0-1.976.77v-3.242h4.077v-0.646H910.6v4.347l0.535,0.224a2.9,2.9,0,0,1,2.014-.808,2.076,2.076,0,0,1,1.485.547,1.938,1.938,0,0,1,.578,1.478,1.907,1.907,0,0,1-.591,1.429,2.051,2.051,0,0,1-1.485.571,2.683,2.683,0,0,1-2.324-1.18l-0.473.472a3.189,3.189,0,0,0,2.8,1.354A2.851,2.851,0,0,0,915.128,586.022Zm7.321-.05a2.585,2.585,0,0,0,.758-1.863,2.489,2.489,0,0,0-.746-1.944,2.756,2.756,0,0,0-1.926-.677,2.6,2.6,0,0,0-1.442.435,3.077,3.077,0,0,0-.982.944c-0.008-.083-0.013-0.211-0.013-0.385a6.123,6.123,0,0,1,.137-1.317,4.78,4.78,0,0,1,.41-1.155,2.17,2.17,0,0,1,.765-0.851,2.05,2.05,0,0,1,1.137-.316,2.143,2.143,0,0,1,1.815.931l0.423-.522a2.728,2.728,0,0,0-2.238-1.055,2.939,2.939,0,0,0-1.206.242,2.552,2.552,0,0,0-.9.646,3.786,3.786,0,0,0-.6.962,5.018,5.018,0,0,0-.354,1.162,7.34,7.34,0,0,0-.1,1.261,8.135,8.135,0,0,0,.1,1.3,5.177,5.177,0,0,0,.329,1.161,3.434,3.434,0,0,0,.578.95,2.511,2.511,0,0,0,.87.634,2.816,2.816,0,0,0,1.169.236A2.691,2.691,0,0,0,922.449,585.972Zm-3.294-.285a2.474,2.474,0,0,1-.733-0.969,3.878,3.878,0,0,1-.274-1.18,2.888,2.888,0,0,1,.976-1.025,2.36,2.36,0,0,1,1.286-.391,2.178,2.178,0,0,1,1.5.509,1.89,1.89,0,0,1,.572,1.491,2,2,0,0,1-.553,1.372,1.959,1.959,0,0,1-1.535.615A1.887,1.887,0,0,1,919.155,585.687Zm13.111-5.737a0.9,0.9,0,0,0-.957-1.065,1.273,1.273,0,0,0-.674.2,1.431,1.431,0,0,0-.486.46,0.871,0.871,0,0,0-.3-0.471,0.951,0.951,0,0,0-.616-0.188,1.268,1.268,0,0,0-.67.2,1.375,1.375,0,0,0-.46.413v-0.529h-0.377v3.5H928.1v-2.644a1.485,1.485,0,0,1,.449-0.423,1.038,1.038,0,0,1,.551-0.178,0.667,0.667,0,0,1,.7.8v2.448h0.384v-2.651a1.283,1.283,0,0,1,.438-0.42,1.079,1.079,0,0,1,.562-0.174,0.667,0.667,0,0,1,.7.8v2.448h0.377v-2.52Zm1.55-2.311h-0.377v4.831h0.377v-4.831Zm3.913,2.383a0.989,0.989,0,0,0-1.1-1.137,1.487,1.487,0,0,0-.7.185,1.864,1.864,0,0,0-.558.431v-0.529H934.99v3.5h0.377v-2.644a1.386,1.386,0,0,1,.493-0.427,1.33,1.33,0,0,1,.645-0.174,0.9,0.9,0,0,1,.63.2,0.884,0.884,0,0,1,.217.677v2.368h0.377v-2.448Zm4.363,0.529,1.63-1.579h-0.5l-2.065,2v-3.332H940.78v4.831h0.377v-1.05l0.652-.616,1.4,1.666h0.507Zm6.891-.6a0.9,0.9,0,0,0-.956-1.065,1.273,1.273,0,0,0-.674.2,1.413,1.413,0,0,0-.486.46,0.877,0.877,0,0,0-.3-0.471,0.951,0.951,0,0,0-.616-0.188,1.271,1.271,0,0,0-.671.2,1.385,1.385,0,0,0-.46.413v-0.529h-0.377v3.5h0.377v-2.644a1.477,1.477,0,0,1,.45-0.423,1.037,1.037,0,0,1,.55-0.178,0.666,0.666,0,0,1,.7.8v2.448H946.9v-2.651a1.3,1.3,0,0,1,.439-0.42,1.078,1.078,0,0,1,.561-0.174,0.666,0.666,0,0,1,.7.8v2.448h0.377v-2.52Zm21.443-1.132v-0.5H965v0.646h4.586l-3.48,7.639h0.783Zm8.748,1.132a0.9,0.9,0,0,0-.957-1.065,1.272,1.272,0,0,0-.673.2,1.413,1.413,0,0,0-.486.46,0.877,0.877,0,0,0-.3-0.471,0.951,0.951,0,0,0-.616-0.188,1.271,1.271,0,0,0-.671.2,1.375,1.375,0,0,0-.46.413v-0.529H974.63v3.5h0.377v-2.644a1.485,1.485,0,0,1,.449-0.423,1.04,1.04,0,0,1,.551-0.178,0.666,0.666,0,0,1,.7.8v2.448h0.384v-2.651a1.3,1.3,0,0,1,.439-0.42,1.075,1.075,0,0,1,.561-0.174,0.666,0.666,0,0,1,.7.8v2.448h0.377v-2.52Zm2.529,2.389-0.145-.289a0.505,0.505,0,0,1-.391.166q-0.363,0-.363-0.478V579.3h0.711v-0.333H980.8v-0.956H980.42v0.956h-0.579V579.3h0.579V581.8a0.642,0.642,0,0,0,.689.76,0.835,0.835,0,0,0,.594-0.217h0Zm3.377-2.332a0.983,0.983,0,0,0-1.1-1.122,1.49,1.49,0,0,0-.7.185,1.89,1.89,0,0,0-.558.431v-1.862h-0.376v4.831h0.376v-2.644a1.4,1.4,0,0,1,.493-0.427,1.336,1.336,0,0,1,.645-0.174,0.925,0.925,0,0,1,.631.192,0.861,0.861,0,0,1,.217.67v2.383h0.377v-2.463Zm3.188,2.26a0.927,0.927,0,0,0,.341-0.739,0.821,0.821,0,0,0-.228-0.6,1.261,1.261,0,0,0-.555-0.326q-0.325-.093-0.648-0.17a1.914,1.914,0,0,1-.551-0.214,0.421,0.421,0,0,1-.228-0.376,0.547,0.547,0,0,1,.239-0.456,1.028,1.028,0,0,1,.638-0.181,1.209,1.209,0,0,1,1.043.463l0.21-.268a1.6,1.6,0,0,0-1.253-.514,1.384,1.384,0,0,0-.91.279,0.862,0.862,0,0,0-.337.691,0.722,0.722,0,0,0,.228.558,1.328,1.328,0,0,0,.555.3c0.217,0.061.433,0.116,0.648,0.167a1.636,1.636,0,0,1,.551.232,0.481,0.481,0,0,1,.228.416,0.621,0.621,0,0,1-.253.511,1.071,1.071,0,0,1-.681.2,1.465,1.465,0,0,1-.653-0.145,1.393,1.393,0,0,1-.478-0.369l-0.225.282a1.732,1.732,0,0,0,1.348.55A1.456,1.456,0,0,0,988.268,582.267Z"/>
</svg>
