<svg id="Слой_1" data-name="Слой 1" xmlns="http://www.w3.org/2000/svg" viewBox="0 0 47.94 48"><title>ship</title><path d="M37.1,26.1,24.3,10.8l-.1-.1A35.33,35.33,0,0,0,2.7.5a2.27,2.27,0,0,0-1.6.6A2.27,2.27,0,0,0,.5,2.7,35.76,35.76,0,0,0,10.6,24.2l.1.1L26.1,37a2.11,2.11,0,0,0,1.3.5,2,2,0,0,0,1.4-.6l2.7-2.7.3.3a1.93,1.93,0,0,0,2.8,0,1.93,1.93,0,0,0,0-2.8l-.3-.3L37,28.7A2,2,0,0,0,37.1,26.1Z" transform="translate(0 0)" style="fill:#e12457;stroke:#fff;stroke-miterlimit:10"/><line x1="34" y1="39.4" x2="36.1" y2="41.6" style="fill:#e12457;stroke:#fff;stroke-miterlimit:10"/><path d="M36.1,43.5a2,2,0,0,1-1.4-.6l-2.2-2.2a2,2,0,1,1,2.8-2.8l2.2,2.2a1.93,1.93,0,0,1,0,2.8A2,2,0,0,1,36.1,43.5Z" transform="translate(0 0)" style="fill:#e12457;stroke:#fff;stroke-miterlimit:10"/><line x1="39.4" y1="33.9" x2="41.6" y2="36.1" style="fill:#e12457;stroke:#fff;stroke-miterlimit:10"/><path d="M41.6,38.1a2,2,0,0,1-1.4-.6L38,35.3a2,2,0,0,1,2.8-2.8L43,34.7a1.93,1.93,0,0,1,0,2.8A2,2,0,0,1,41.6,38.1Z" transform="translate(0 0)" style="fill:#e12457;stroke:#fff;stroke-miterlimit:10"/><path d="M11.1,29.6c-1.7,5.3-.1,11.5,4.6,17.2a1.8,1.8,0,0,0,1.5.7h.1a1.86,1.86,0,0,0,1.5-.9l4.3-6.9Z" transform="translate(0 0)" style="fill:#e12457;stroke:#fff;stroke-miterlimit:10"/><path d="M47,16a15.62,15.62,0,0,0-10.7-5.7,15.09,15.09,0,0,0-6.7.7L39.7,23.1l6.8-4.3a2,2,0,0,0,.9-1.3A1.67,1.67,0,0,0,47,16Z" transform="translate(0 0)" style="fill:#e12457;stroke:#fff;stroke-miterlimit:10"/></svg>