<svg xmlns="http://www.w3.org/2000/svg" xmlns:xlink="http://www.w3.org/1999/xlink"><symbol id="icon-down" viewBox="0 0 17.57 15.84"><path d="M9.36 9.41l8-8A.79.79 0 1 0 16.24.3l-8 8a.79.79 0 0 0 0 1 .78.78 0 0 0 1.12.11zm0 6.13l8-8a.79.79 0 0 0-1.12-1.11l-8 8a.8.8 0 0 0 0 1 .78.78 0 0 0 1.12.11z" style="isolation:isolate"/><path d="M8.2 15.54l-8-8a.785.785 0 0 1 1.14-1.08l8 8a.79.79 0 0 1-1.12 1.11z" style="isolation:isolate"/></symbol><symbol id="icon-facebook" viewBox="0 0 112.196 112.196"><circle cx="56.098" cy="56.098" r="56.098" fill="#3b5998"/><path d="M70.201 58.294h-10.01v36.672H45.025V58.294h-7.213V45.406h7.213v-8.34c0-5.964 2.833-15.303 15.301-15.303l11.234.047v12.51h-8.151c-1.337 0-3.217.668-3.217 3.513v7.585h11.334l-1.325 12.876z" fill="#fff"/></symbol><symbol id="icon-leaves" viewBox="0 0 72.17 73.06"><path d="M49.24 29.8A32.54 32.54 0 0 0 32.54 0s-19 15.89-15.52 29.21c0 0 9.87 3.13 13 12.12 0 .13.09.26.13.39a59.79 59.79 0 0 1 4.18-22.65s-3.46 23-.6 30.4c0 0 2.14-14.67 15.51-19.67z" fill="#e12457"/><path d="M13.45 39.34s9.92 4.43 16.7 12.52c.45.54.56-21.76-29.83-24.44 0 0-5.85 39.14 32.22 36.36a63.43 63.43 0 0 0-19.09-24.44zm56.88-12s-36.32-.75-34.87 34.83c0 0 9.29-15.76 24-21.77 0 0-22.59 13.41-21.79 32.66-.03 0 43.87-5.73 32.66-45.72z" fill="#e12457"/></symbol><symbol id="icon-micro" viewBox="0 0 34 48"><path d="M31.81 41.3H23a13.57 13.57 0 0 0 5.87-20.77 6.07 6.07 0 0 0 .54-2.48 6 6 0 0 0-5.43-6l1.55-2.53a2.18 2.18 0 0 0-.68-3l2.87-4.68L24.56 0l-2.87 4.68a2.18 2.18 0 0 0-3 .74l-9.6 15.66-1.69-1-2.39 3.89 10.12 6.21 2.39-3.89-1.68-1 2.43-4a6 6 0 0 0 5.1 2.71 6.09 6.09 0 0 0 1.43-.18 8.36 8.36 0 0 1-10.71 12.26h2.27v-3.22H0v3.22h6.58A13.62 13.62 0 0 0 13 41.3H3a2.19 2.19 0 0 0-2.19 2.18v2.34A2.19 2.19 0 0 0 3 48h28.82A2.19 2.19 0 0 0 34 45.82v-2.34a2.19 2.19 0 0 0-2.19-2.18z" fill="#e12457"/></symbol><symbol id="icon-mine" viewBox="0 0 84 60"><path d="M77.89 45H6.11C5 29.65 12.47 15.26 24.5 8L27 30.66a3.018 3.018 0 1 0 6-.66L30 3.32a3 3 0 0 1 .75-2.3 3.09 3.09 0 0 1 2.31-1h17.86a3.09 3.09 0 0 1 2.31 1A3 3 0 0 1 54 3.27L51 30a3.018 3.018 0 1 0 6 .66L59.5 8C71.53 15.26 79 29.65 77.89 45zM84 55.5a4.51 4.51 0 0 1-4.5 4.5h-75a4.5 4.5 0 0 1 0-9h75a4.51 4.51 0 0 1 4.5 4.5z" fill="#e12457"/></symbol><symbol id="icon-photo" viewBox="0 0 72 60"><path d="M26 0l-5 10H7a7 7 0 0 0-7 7v36a7 7 0 0 0 7 7h58a7 7 0 0 0 7-7V17a7 7 0 0 0-7-7H51L46 0zm10 18a17 17 0 1 1-17 17 17 17 0 0 1 17-17zm0 6a11 11 0 1 0 11 11 11 11 0 0 0-11-11z" fill="#e12457"/></symbol><symbol id="icon-teacup" viewBox="0 0 59.2 45.1"><path d="M2.5 41.6a8.27 8.27 0 0 0-2.5.2l1.2 3.1c0 .1 4 .2 5.3.2h41.8c1.4 0 5.3-.1 5.3-.2l1.2-3.1a8.27 8.27 0 0 0-2.5-.2zM47.6 5.8h-.3l.3-4A1.79 1.79 0 0 0 45.8 0H31.5v19l5.8 1.9L33.6 32l-11.1-3.7 3.7-11.2 4.6 1.5V0H9.1a1.79 1.79 0 0 0-1.8 1.8l3 36.7a1.79 1.79 0 0 0 1.8 1.8h30.7a1.79 1.79 0 0 0 1.8-1.8l.8-9.7a15 15 0 0 0 2.2.2 11.6 11.6 0 1 0 0-23.2zm5.87 16.44a8.35 8.35 0 0 1-1 1A7.61 7.61 0 0 1 47.6 25a5.84 5.84 0 0 1-1.9-.2l1.2-15h.7a7.61 7.61 0 0 1 5.87 12.44z" fill="#e12457"/></symbol><symbol id="icon-twitter" viewBox="0 0 112.197 112.197"><circle cx="56.099" cy="56.098" r="56.098" fill="#55acee"/><path d="M90.461 40.316a26.753 26.753 0 0 1-7.702 2.109 13.445 13.445 0 0 0 5.897-7.417 26.843 26.843 0 0 1-8.515 3.253 13.396 13.396 0 0 0-9.79-4.233c-7.404 0-13.409 6.005-13.409 13.409 0 1.051.119 2.074.349 3.056-11.144-.559-21.025-5.897-27.639-14.012a13.351 13.351 0 0 0-1.816 6.742c0 4.651 2.369 8.757 5.965 11.161a13.314 13.314 0 0 1-6.073-1.679l-.001.17c0 6.497 4.624 11.916 10.757 13.147a13.362 13.362 0 0 1-3.532.471c-.866 0-1.705-.083-2.523-.239 1.706 5.326 6.657 9.203 12.526 9.312a26.904 26.904 0 0 1-16.655 5.74c-1.08 0-2.15-.063-3.197-.188a37.929 37.929 0 0 0 20.553 6.025c24.664 0 38.152-20.432 38.152-38.153 0-.581-.013-1.16-.039-1.734a27.192 27.192 0 0 0 6.692-6.94z" fill="#f1f2f2"/></symbol><symbol id="icon-vk" viewBox="0 0 112.196 112.196"><circle cx="56.098" cy="56.098" r="56.098" fill="#4d76a1"/><path d="M53.979 80.702h4.403s1.33-.146 2.009-.878c.625-.672.605-1.934.605-1.934s-.086-5.908 2.656-6.778c2.703-.857 6.174 5.71 9.853 8.235 2.782 1.911 4.896 1.492 4.896 1.492l9.837-.137s5.146-.317 2.706-4.363c-.2-.331-1.421-2.993-7.314-8.463-6.168-5.725-5.342-4.799 2.088-14.702 4.525-6.031 6.334-9.713 5.769-11.29-.539-1.502-3.867-1.105-3.867-1.105l-11.076.069s-.821-.112-1.43.252c-.595.357-.978 1.189-.978 1.189s-1.753 4.667-4.091 8.636c-4.932 8.375-6.904 8.817-7.71 8.297-1.875-1.212-1.407-4.869-1.407-7.467 0-8.116 1.231-11.5-2.397-12.376-1.204-.291-2.09-.483-5.169-.514-3.952-.041-7.297.012-9.191.94-1.26.617-2.232 1.992-1.64 2.071.732.098 2.39.447 3.269 1.644 1.135 1.544 1.095 5.012 1.095 5.012s.652 9.554-1.523 10.741c-1.493.814-3.541-.848-7.938-8.446-2.253-3.892-3.954-8.194-3.954-8.194s-.328-.804-.913-1.234c-.71-.521-1.702-.687-1.702-.687l-10.525.069s-1.58.044-2.16.731c-.516.611-.041 1.875-.041 1.875s8.24 19.278 17.57 28.993c8.555 8.907 18.27 8.322 18.27 8.322z" fill-rule="evenodd" clip-rule="evenodd" fill="#fff"/></symbol><symbol id="icon-youtube" viewBox="0 0 461.001 461.001"><path d="M365.257 67.393H95.744C42.866 67.393 0 110.259 0 163.137v134.728c0 52.878 42.866 95.744 95.744 95.744h269.513c52.878 0 95.744-42.866 95.744-95.744V163.137c0-52.878-42.866-95.744-95.744-95.744zm-64.751 169.663l-126.06 60.123c-3.359 1.602-7.239-.847-7.239-4.568V168.607c0-3.774 3.982-6.22 7.348-4.514l126.06 63.881c3.748 1.899 3.683 7.274-.109 9.082z" fill="#f61c0d"/></symbol></svg>