<svg data-name="Слой 1" xmlns="http://www.w3.org/2000/svg" viewBox="0 0 72.17 73.06"><path d="M49.24 29.8A32.54 32.54 0 0 0 32.54 0s-19 15.89-15.52 29.21c0 0 9.87 3.13 13 12.12 0 .13.09.26.13.39a59.79 59.79 0 0 1 4.18-22.65s-3.46 23-.6 30.4c0 0 2.14-14.67 15.51-19.67z" fill="#e12457"/><path d="M13.45 39.34s9.92 4.43 16.7 12.52c.45.54.56-21.76-29.83-24.44 0 0-5.85 39.14 32.22 36.36a63.43 63.43 0 0 0-19.09-24.44zm56.88-12s-36.32-.75-34.87 34.83c0 0 9.29-15.76 24-21.77 0 0-22.59 13.41-21.79 32.66-.03 0 43.87-5.73 32.66-45.72z" fill="#e12457"/></svg>