<?xml version="1.0" encoding="utf-8"?>
<!-- Generator: Adobe Illustrator 22.1.0, SVG Export Plug-In . SVG Version: 6.00 Build 0)  -->
<svg version="1.1" id="Группа_11" xmlns="http://www.w3.org/2000/svg" xmlns:xlink="http://www.w3.org/1999/xlink" x="0px"
	 y="0px" viewBox="0 0 1366 768" style="enable-background:new 0 0 1366 768;" xml:space="preserve">
<style type="text/css">
	.st0{fill:none;stroke:#E12457;stroke-width:5;}
	.st1{fill:#FFFFFF;stroke:#E12457;stroke-width:5;}
	.st2{fill:#E12457;}
	.st3{fill:#E12457;stroke:#FFFFFF;stroke-miterlimit:10;}
</style>
<path id="Эллипс_4" class="st0" d="M724-622.9c387.8,1.2,682.9,277.4,659,616.8s-357.6,613.6-745.4,612.3
	S-45.3,328.9-21.5-10.6S336.1-624.1,724-622.9z"/>
<circle id="Эллипс_3" class="st1" cx="1040.7" cy="497.3" r="21.5"/>
<circle id="Эллипс_3_копия" class="st1" cx="778.7" cy="591.5" r="38.1"/>
<path id="Earth_" class="st2" d="M773,593.3h-2.7v-1.3h2.7v-1h-2.7v-1.2h2.7v-1h-3.9v5.5h3.9L773,593.3L773,593.3z M777.4,591.8
	c0-0.4-0.1-0.9-0.5-1.2c-0.4-0.3-0.8-0.4-1.3-0.4c-0.6,0-1.3,0.2-1.7,0.6l0.4,0.7c0.3-0.3,0.7-0.5,1.2-0.5c0.2,0,0.5,0.1,0.6,0.2
	c0.2,0.1,0.2,0.3,0.2,0.5v0.5c-0.3-0.3-0.8-0.5-1.3-0.5c-0.4,0-0.7,0.1-1,0.3c-0.3,0.2-0.4,0.6-0.4,1c0,0.4,0.1,0.7,0.4,1
	c0.3,0.2,0.6,0.4,1,0.4c0.5,0,0.9-0.2,1.3-0.5v0.4h1.1L777.4,591.8L777.4,591.8z M774.9,593.6c-0.1-0.1-0.2-0.3-0.2-0.4
	c0-0.2,0.1-0.3,0.2-0.4c0.2-0.1,0.3-0.2,0.5-0.2c0.3,0,0.6,0.1,0.8,0.3v0.5c-0.2,0.2-0.5,0.4-0.8,0.3
	C775.3,593.8,775.1,593.7,774.9,593.6L774.9,593.6z M779.5,591.7c0.1-0.1,0.3-0.3,0.4-0.3c0.2-0.1,0.4-0.1,0.6-0.1
	c0.1,0,0.2,0,0.3,0v-1c-0.2,0-0.5,0.1-0.7,0.2c-0.2,0.1-0.4,0.3-0.6,0.5v-0.5h-1.1v4h1.1L779.5,591.7L779.5,591.7z M783.6,594.2
	l-0.2-0.8c-0.1,0.1-0.2,0.1-0.4,0.1c-0.1,0-0.2,0-0.3-0.1c-0.1-0.1-0.1-0.2-0.1-0.3v-1.8h0.8v-0.9h-0.8v-1.1h-1.1v1.1h-0.7v0.9h0.7
	v2.1c0,0.3,0.1,0.6,0.3,0.8c0.2,0.2,0.5,0.3,0.8,0.3C783,594.5,783.4,594.4,783.6,594.2z M787.9,591.5c0-0.3-0.1-0.7-0.3-0.9
	c-0.3-0.2-0.6-0.4-1-0.3c-0.3,0-0.6,0.1-0.8,0.2c-0.2,0.1-0.4,0.3-0.6,0.4v-2h-1.1v5.5h1.1v-2.7c0.2-0.3,0.5-0.5,0.9-0.5
	c0.2,0,0.4,0,0.6,0.2c0.1,0.2,0.2,0.4,0.2,0.6v2.4h1.1V591.5L787.9,591.5z"/>
<path id="Mars" class="st2" d="M1038.2,494.1h-1.7l-1.3,3.3l-1.3-3.3h-1.7v5.5h1.2v-3.9l1.6,3.9h0.5l1.6-3.9v3.9h1.2L1038.2,494.1
	L1038.2,494.1z M1042.7,497.1c0-0.4-0.1-0.9-0.5-1.2c-0.4-0.3-0.8-0.4-1.3-0.4c-0.6,0-1.3,0.2-1.7,0.6l0.4,0.7
	c0.3-0.3,0.7-0.5,1.2-0.5c0.2,0,0.5,0.1,0.6,0.2c0.2,0.1,0.2,0.3,0.2,0.5v0.5c-0.3-0.3-0.8-0.5-1.3-0.5c-0.4,0-0.7,0.1-1,0.3
	c-0.3,0.2-0.4,0.6-0.4,1c0,0.4,0.1,0.7,0.4,1c0.3,0.2,0.6,0.4,1,0.4c0.5,0,0.9-0.2,1.3-0.5v0.4h1.1L1042.7,497.1L1042.7,497.1z
	 M1040.3,498.9c-0.1-0.1-0.2-0.3-0.2-0.4c0-0.2,0.1-0.3,0.2-0.4c0.2-0.1,0.3-0.2,0.5-0.2c0.3,0,0.6,0.1,0.8,0.3v0.5
	c-0.2,0.2-0.5,0.4-0.8,0.3C1040.6,499.1,1040.4,499,1040.3,498.9L1040.3,498.9z M1044.8,497c0.1-0.1,0.3-0.3,0.4-0.3
	c0.2-0.1,0.4-0.1,0.6-0.1c0.1,0,0.2,0,0.3,0v-1c-0.2,0-0.5,0.1-0.7,0.2c-0.2,0.1-0.4,0.3-0.6,0.5v-0.5h-1.1v4h1.1L1044.8,497
	L1044.8,497z M1049.4,499.4c0.5-0.4,0.6-1,0.3-1.6c-0.1-0.2-0.3-0.3-0.4-0.4c-0.2-0.1-0.4-0.2-0.6-0.2c-0.2-0.1-0.4-0.1-0.6-0.1
	c-0.2,0-0.3-0.1-0.4-0.1c-0.1,0-0.2-0.1-0.2-0.2c0-0.1,0.1-0.2,0.2-0.3c0.1-0.1,0.3-0.1,0.4-0.1c0.2,0,0.5,0,0.7,0.1
	c0.2,0.1,0.4,0.2,0.5,0.3l0.4-0.7c-0.5-0.4-1-0.6-1.6-0.5c-0.4,0-0.9,0.1-1.2,0.4c-0.3,0.2-0.4,0.5-0.4,0.9c0,0.2,0.1,0.4,0.2,0.6
	c0.1,0.2,0.3,0.3,0.4,0.4c0.2,0.1,0.4,0.1,0.6,0.2c0.2,0.1,0.4,0.1,0.6,0.1c0.2,0,0.3,0.1,0.4,0.1c0.1,0,0.2,0.1,0.2,0.2
	c0,0.1-0.1,0.2-0.2,0.3c-0.2,0.1-0.3,0.1-0.5,0.1c-0.3,0-0.5-0.1-0.8-0.2c-0.2-0.1-0.4-0.2-0.6-0.4l-0.5,0.7
	c0.2,0.2,0.5,0.4,0.8,0.5c0.3,0.1,0.7,0.2,1,0.2C1048.6,499.8,1049.1,499.7,1049.4,499.4L1049.4,499.4z"/>
<g>
	<path class="st3" d="M932.3,560l19.1-5.9l0.1-0.1c7.6-3.1,13.8-8.7,17.7-15.9c0.2-0.6,0.3-1.2,0.1-1.7c-0.2-0.5-0.7-0.9-1.2-1.2
		c-7.8-2.4-16.2-2-23.7,1l-0.1,0.1l-17.7,9.3c-0.4,0.3-0.8,0.5-1,1s-0.2,1,0,1.5l1.4,3.5l-0.4,0.2c-0.5,0.2-0.9,0.6-1.1,1.1
		c-0.2,0.5-0.2,1,0,1.5c0.4,1,1.5,1.5,2.6,1.1l0.4-0.2l1.4,3.5C930.3,559.8,931.3,560.2,932.3,560z"/>
	<g>
		<g>
			<line class="st3" x1="921.2" y1="552" x2="918.3" y2="553.1"/>
			<path class="st3" d="M916.6,552.3c0.2-0.5,0.6-0.8,1.1-1.1l2.9-1.2c1-0.4,2.2,0,2.6,1.1c0.4,1,0,2.2-1.1,2.6l-2.9,1.2
				c-1,0.4-2.2,0-2.6-1.1C916.4,553.3,916.4,552.8,916.6,552.3z"/>
		</g>
		<g>
			<line class="st3" x1="924.2" y1="559.1" x2="921.3" y2="560.2"/>
			<path class="st3" d="M919.4,559.5c0.2-0.5,0.6-0.8,1.1-1.1l2.9-1.2c1-0.4,2.2,0,2.6,1.1c0.4,1,0,2.2-1.1,2.6l-2.9,1.2
				c-1,0.4-2.2,0-2.6-1.1C919.2,560.5,919.3,559.9,919.4,559.5z"/>
		</g>
	</g>
	<path class="st3" d="M939.1,534.6c-4.2-3.6-10.6-4.5-17.6-2.4c-0.6,0.2-1,0.6-1.2,1.1l0,0.1c-0.2,0.6-0.1,1.3,0.3,1.7l4.7,6.6
		L939.1,534.6z"/>
	<path class="st3" d="M937.7,573c4.1-1.2,7.4-3.9,9.4-7.7c1.2-2,1.8-4.2,1.9-6.5l-15.1,4.6l1.3,7.9c0.1,0.6,0.4,1,0.9,1.3
		S937.2,573.2,937.7,573z"/>
</g>
</svg>
