<svg data-name="Слой 1" xmlns="http://www.w3.org/2000/svg" viewBox="0 0 47.94 48"><path d="M37.1 26.1L24.3 10.8l-.1-.1A35.33 35.33 0 0 0 2.7.5a2.27 2.27 0 0 0-1.6.6 2.27 2.27 0 0 0-.6 1.6 35.76 35.76 0 0 0 10.1 21.5l.1.1L26.1 37a2.11 2.11 0 0 0 1.3.5 2 2 0 0 0 1.4-.6l2.7-2.7.3.3a1.93 1.93 0 0 0 2.8 0 1.93 1.93 0 0 0 0-2.8l-.3-.3 2.7-2.7a2 2 0 0 0 .1-2.6zM34 39.4l2.1 2.2m0 1.9a2 2 0 0 1-1.4-.6l-2.2-2.2a2 2 0 1 1 2.8-2.8l2.2 2.2a1.93 1.93 0 0 1 0 2.8 2 2 0 0 1-1.4.6zm3.3-9.6l2.2 2.2m0 2a2 2 0 0 1-1.4-.6L38 35.3a2 2 0 0 1 2.8-2.8l2.2 2.2a1.93 1.93 0 0 1 0 2.8 2 2 0 0 1-1.4.6zm-30.5-8.5c-1.7 5.3-.1 11.5 4.6 17.2a1.8 1.8 0 0 0 1.5.7h.1a1.86 1.86 0 0 0 1.5-.9l4.3-6.9zM47 16a15.62 15.62 0 0 0-10.7-5.7 15.09 15.09 0 0 0-6.7.7l10.1 12.1 6.8-4.3a2 2 0 0 0 .9-1.3A1.67 1.67 0 0 0 47 16z" fill="#e12457" stroke="#fff" stroke-miterlimit="10"/></svg>