<svg id="Group_1" data-name="Group 1" xmlns="http://www.w3.org/2000/svg" viewBox="0 0 141.53 38.83"><defs><style>.cls-1{fill:#fff;fill-rule:evenodd}</style></defs><path class="cls-1" d="M54 7.39h-5V18.6h2v-4.18h3a3.69 3.69 0 0 0 2.75-1 3.41 3.41 0 0 0 1-2.49 3.41 3.41 0 0 0-1-2.51A3.72 3.72 0 0 0 54 7.39zm1.14 4.81a2.08 2.08 0 0 1-1.41.49H51V9.12h2.75a2.08 2.08 0 0 1 1.41.49 1.65 1.65 0 0 1 .55 1.3 1.64 1.64 0 0 1-.58 1.29zm8-4.81l-4.5 11.21h2.29l.84-2.15H67l.84 2.15h2.29L65.66 7.39zm-.8 7.33l2.06-5.34 2.06 5.34zm17.44.45l-5.87-7.78h-2.06V18.6h2v-8l6 8h1.94V7.39h-2zm4.14-6.05h3.48v9.48h2V9.12h3.47V7.39h-9zM103 12h-6V7.39h-2V18.6h2v-4.89h6v4.89h2V7.39h-2zm4.88 6.62h7.86v-1.75h-5.85v-3.11h5.73V12h-5.73V9.12h5.85V7.39h-7.86zm15.7-11.39a5.74 5.74 0 0 0-4.21 1.64 5.61 5.61 0 0 0-1.65 4.13 5.59 5.59 0 0 0 1.65 4.15 6.24 6.24 0 0 0 8.43 0 5.59 5.59 0 0 0 1.65-4.15 5.61 5.61 0 0 0-1.65-4.16 5.75 5.75 0 0 0-4.22-1.63zm2.76 8.69a3.9 3.9 0 0 1-5.52 0 4.16 4.16 0 0 1-1-2.9 4.17 4.17 0 0 1 1-2.91 3.91 3.91 0 0 1 5.52 0 4.13 4.13 0 0 1 1 2.91 4.11 4.11 0 0 1-1 2.88zm13.41-8.51v7.78l-5.86-7.78h-2.07V18.6h2v-8l6 8h1.94V7.39z" transform="translate(-.24 -.08)" id="Pantheon"/><path class="cls-1" d="M52.19 25A2.8 2.8 0 0 0 50 26.13v-1h-.39v8.41H50v-3.39a2.73 2.73 0 0 0 1 .88 2.66 2.66 0 0 0 1.27.32 2.53 2.53 0 0 0 2-.88 3.42 3.42 0 0 0 .73-2.32 3.43 3.43 0 0 0-.76-2.32 2.57 2.57 0 0 0-2.05-.83zm1.74 5.24a2.08 2.08 0 0 1-1.74.81 2.56 2.56 0 0 1-1.31-.36 2.62 2.62 0 0 1-.93-.87v-3.31a2.42 2.42 0 0 1 .93-.85 2.56 2.56 0 0 1 1.31-.36 2.1 2.1 0 0 1 1.74.8 3.7 3.7 0 0 1 0 4.1zm3.27-4v-1.13h-.39v6.09h.39v-4.56a2.07 2.07 0 0 1 .78-.82 2 2 0 0 1 1.02-.38h.31V25a2.69 2.69 0 0 0-2.11 1.22zm8.2-.35a2.87 2.87 0 0 0-4.2 0 3.28 3.28 0 0 0-.8 2.27 3.32 3.32 0 0 0 .8 2.29 2.67 2.67 0 0 0 2.1.91 2.64 2.64 0 0 0 2.1-.91 3.66 3.66 0 0 0 0-4.57zm-.29 4.3a2.37 2.37 0 0 1-3.62 0 3.37 3.37 0 0 1 0-4 2.37 2.37 0 0 1 3.62 0 3.41 3.41 0 0 1 0 4zm3 2a1.14 1.14 0 0 1-.31.88 1.2 1.2 0 0 1-.83.29 1.26 1.26 0 0 1-1-.45l-.24.31a1.72 1.72 0 0 0 1.19.48 1.34 1.34 0 0 0 1.53-1.51v-7h-.39zm.2-8.82a.37.37 0 0 0-.26.1.35.35 0 0 0-.12.26.34.34 0 0 0 .07.27.38.38 0 0 0 .26.11.38.38 0 0 0 .37-.37.38.38 0 0 0-.11-.26.35.35 0 0 0-.24-.14zm5 1.62a2.71 2.71 0 0 0-2.09.93 3.25 3.25 0 0 0-.84 2.26 3.21 3.21 0 0 0 .86 2.3 2.88 2.88 0 0 0 2.2.9 3.25 3.25 0 0 0 2.4-1l-.23-.24a2.9 2.9 0 0 1-2.17.92 2.42 2.42 0 0 1-1.88-.79 2.91 2.91 0 0 1-.74-1.94h5.38v-.13a3.44 3.44 0 0 0-.76-2.27 2.63 2.63 0 0 0-2.16-.93zm2.48 3h-5a3 3 0 0 1 .7-1.82 2.15 2.15 0 0 1 1.78-.82 2.3 2.3 0 0 1 1.39.43 2.42 2.42 0 0 1 .84 1 3 3 0 0 1 .26 1.16zm4.93-2.64a2.2 2.2 0 0 1 1.82.91l.28-.23a2.81 2.81 0 0 0-.92-.76 2.58 2.58 0 0 0-1.24-.27 2.71 2.71 0 0 0-2.13.92 3.6 3.6 0 0 0 0 4.55 2.71 2.71 0 0 0 2.13.92 2.58 2.58 0 0 0 1.21-.25 2.85 2.85 0 0 0 .92-.77l-.28-.24a2.21 2.21 0 0 1-1.82.92 2.3 2.3 0 0 1-1.85-.81 3.06 3.06 0 0 1-.69-2.05 3 3 0 0 1 .68-2 2.27 2.27 0 0 1 1.86-.89zm5.6 5.38a.94.94 0 0 1-.74.33c-.45 0-.67-.29-.67-.88v-4.73h1.26v-.34h-1.29v-1.66h-.39v1.66h-1v.34h1v4.68c0 .81.35 1.22 1.06 1.22a1.37 1.37 0 0 0 1-.38z" transform="translate(-.24 -.08)" id="project"/><path d="M19.65.08a19.42 19.42 0 1 0 16.42 9.05A4.34 4.34 0 0 0 36.64 7a4.45 4.45 0 0 0-4.45-4.45 4.35 4.35 0 0 0-2.19.54A19.42 19.42 0 0 0 19.65.08zm0 2.43a16.84 16.84 0 0 1 8.62 2.35A4.39 4.39 0 0 0 27.74 7a4.45 4.45 0 0 0 4.45 4.45 4.4 4.4 0 0 0 2.11-.53 17 17 0 1 1-14.65-8.41zm0 5.26a11.73 11.73 0 0 0-10.4 17.15 3.6 3.6 0 0 0-.52 1.86 3.64 3.64 0 0 0 3.64 3.64 3.58 3.58 0 0 0 1.86-.52 11.73 11.73 0 1 0 5.42-22.13zm0 2.43A9.3 9.3 0 1 1 15.81 28a3.65 3.65 0 0 0-2.26-4.63 3.7 3.7 0 0 0-2.37 0 9.3 9.3 0 0 1 8.47-13.17zm0 4.45a4.85 4.85 0 1 0 4.86 4.85 4.85 4.85 0 0 0-4.86-4.85zm0 2.42a2.43 2.43 0 1 1-2.42 2.43 2.43 2.43 0 0 1 2.42-2.43z" transform="translate(-.24 -.08)" fill="#e12457" id="Векторный_смарт-объект_Изображение" data-name="Векторный смарт-объект Изображение"/></svg>